<svg class="svg-icon" style="width: 1.0009765625em; height: 1em;vertical-align: middle;fill: currentColor;overflow: hidden;" viewBox="0 0 1025 1024" version="1.1" xmlns="http://www.w3.org/2000/svg"><path d="M300.153441 264.670766L45.877599 355.126598c-14.792777 5.297413-31.084822-2.49878-36.382235-17.291557-5.297413-14.792777 2.49878-31.084822 17.291556-36.382235l254.275842-90.455832c14.792777-5.297413 31.084822 2.49878 36.382236 17.291557 5.297413 14.792777-2.49878 31.184773-17.291557 36.382235z"  /><path d="M113.244705 67.966813L64.36857 333.437189c-2.798633 15.392484-17.791313 25.687457-33.183797 22.888824-15.392484-2.798633-25.687457-17.791313-22.888824-33.183797L57.172084 57.67184C59.970717 42.279356 74.963397 31.984383 90.355881 34.882967c15.392484 2.798633 25.687457 17.691362 22.888824 33.083846z"  /><path d="M84.958516 744.636408m-24.987799 0a24.987799 24.987799 0 1 0 49.975598 0 24.987799 24.987799 0 1 0-49.975598 0Z"  /><path d="M512.749634 0.499756C308.649292 0.499756 132.435334 120.041386 50.275451 292.857003h56.072621C184.409956 148.527477 337.135383 50.475354 512.749634 50.475354c255.075451 0 461.774524 206.699073 461.774524 461.774524s-206.699073 461.774524-461.774524 461.774524c-175.614251 0-328.339678-98.052123-406.401562-242.381649H68.966325v20.989751h-2.998536v2.998536h-3.39834c86.557735 159.821962 255.675159 268.36896 450.180185 268.36896 282.661981 0 511.750122-229.088141 511.750122-511.750122S795.411615 0.499756 512.749634 0.499756z"  /></svg>